<svg xmlns="http://www.w3.org/2000/svg" viewBox="0 0 512 512">
  <defs>
    <linearGradient id="bg" x1="0%" y1="0%" x2="100%" y2="100%">
      <stop offset="0%" style="stop-color:#1a1a2e"/>
      <stop offset="100%" style="stop-color:#0f3460"/>
    </linearGradient>
    <linearGradient id="accent" x1="0%" y1="0%" x2="100%" y2="100%">
      <stop offset="0%" style="stop-color:#00d4ff"/>
      <stop offset="100%" style="stop-color:#7b2cbf"/>
    </linearGradient>
  </defs>
  
  <!-- Background circle -->
  <circle cx="256" cy="256" r="250" fill="url(#bg)" stroke="url(#accent)" stroke-width="8"/>
  
  <!-- Dartboard rings -->
  <circle cx="256" cy="256" r="180" fill="none" stroke="#2a2a4a" stroke-width="3"/>
  <circle cx="256" cy="256" r="140" fill="none" stroke="#2a2a4a" stroke-width="3"/>
  <circle cx="256" cy="256" r="100" fill="none" stroke="#2a2a4a" stroke-width="3"/>
  <circle cx="256" cy="256" r="60" fill="none" stroke="#2a2a4a" stroke-width="3"/>
  
  <!-- Bullseye -->
  <circle cx="256" cy="256" r="30" fill="#00d4ff" opacity="0.8"/>
  <circle cx="256" cy="256" r="12" fill="#ff4444"/>
  
  <!-- Dart -->
  <g transform="translate(256,256) rotate(-45)">
    <!-- Dart body -->
    <rect x="20" y="-6" width="120" height="12" rx="3" fill="url(#accent)"/>
    <!-- Dart tip -->
    <polygon points="20,0 -20,0 0,-8" transform="rotate(90)" fill="#silver"/>
    <polygon points="0,-8 20,0 0,8" fill="#c0c0c0"/>
    <!-- Dart flights -->
    <polygon points="140,-6 180,-25 180,-6" fill="#ff4444" opacity="0.9"/>
    <polygon points="140,6 180,25 180,6" fill="#ff4444" opacity="0.9"/>
  </g>
  
  <!-- Glow effect on bullseye -->
  <circle cx="256" cy="256" r="35" fill="none" stroke="#00d4ff" stroke-width="2" opacity="0.5"/>
</svg>
